# xmcd
#
# Track frame offsets:
#	150
#	25924
#	48025
#	69372
#	93782
#	113326
#	135298
#	165687
#	189944
#	208390
#
# Disc length: 2955 seconds
#
# Revision: 1
# Processed by: cddbd v1.5.1PL2 Copyright (c) Steve Scherf et al.
# Submitted via: audiograbber 1.83.01
#
DISCID=740b890a
DTITLE=Jimmy Ballero - The Louisiana Night
DYEAR=2002
DGENRE=Blues
TTITLE0=The Parish Line
TTITLE1=Down the Road
TTITLE2=Down in New Orleans, Pt.1
TTITLE3=Watchin' The Sun Coming Up
TTITLE4=I don't care
TTITLE5=Same Old Eyes (Some One New)
TTITLE6=What Went Wrong
TTITLE7=I Remember What Mama Saie When I was Young
TTITLE8=Baby Won't You Please Come Home
TTITLE9=Down in New Orleans, Pt.2
EXTD=
EXTT0=
EXTT1=
EXTT2=
EXTT3=
EXTT4=
EXTT5=
EXTT6=
EXTT7=
EXTT8=
EXTT9=
PLAYORDER=
